<?xml version="1.0" encoding="utf-8"?><!DOCTYPE svg PUBLIC "-//W3C//DTD SVG 1.1//EN" "http://www.w3.org/Graphics/SVG/1.1/DTD/svg11.dtd">
<svg version="1.1" xmlns="http://www.w3.org/2000/svg" xmlns:xlink="http://www.w3.org/1999/xlink" width="50" height="50" viewBox="0 0 50 50" xml:space="preserve">
<g transform="translate(-300,-3650)">
<path d="M306.666,3672.791c0,0,2.5,0.813,2.938,2.313c0,0-0.416,13.334,12.75,13.334
			c0,0,7.834-1.166,12.668,6.084c0,0,4.665-1.584,3.582-7.25c0,0-7.5-1.502-12.25-5.584c0,0,17.75-4.666,16.75-22.084
			c0,0-10.666,6.584-17.541,8.084s-7.959,3.584-7.959,8.166c0,0-1.832,0.502-4-3.332
			C311.438,3668.688,307.188,3671.938,306.666,3672.791z" fill="none" stroke="#000000"></path>
<path d="M313.932,3673.07c0,0,4.234-7.029,1.672-16.342c0,0,6.681,3.063,8.027,11.438" fill="none" stroke="#000000"></path>
</g></svg>