<?xml version="1.0" encoding="UTF-8"?>
<svg id="Layer_1" data-name="Layer 1" xmlns="http://www.w3.org/2000/svg" viewBox="0 0 600 315">
  <defs>
    <style>
      .cls-1 {
        stroke: #888;
        stroke-width: 5px;
      }

      .cls-1, .cls-2 {
        fill: none;
      }

      .cls-3 {
        fill: #ff4136;
      }

      .cls-4 {
        fill: #7fdbff;
      }

      .cls-2 {
        stroke: #000;
      }
    </style>
  </defs>
  <path class="cls-4" d="M60.4,127.55c9.98,13.98,19.97,13.98,29.95,0"/>
  <path class="cls-2" d="M60.4,127.55c9.98,13.98,19.97,13.98,29.95,0"/>
  <rect class="cls-3" x="60.4" y="97.6" width="29.95" height="29.95"/>
  <rect class="cls-2" x="60.4" y="97.6" width="29.95" height="29.95"/>
  <circle cx="60.4" cy="127.55" r="2.4"/>
  <path class="cls-3" d="M60.4,97.6c-13.98-9.98-13.98-19.97,0-29.95"/>
  <path class="cls-2" d="M60.4,97.6c-13.98-9.98-13.98-19.97,0-29.95"/>
  <rect class="cls-4" x="60.4" y="67.65" width="29.95" height="29.95"/>
  <rect class="cls-2" x="60.4" y="67.65" width="29.95" height="29.95"/>
  <circle cx="60.4" cy="97.6" r="2.4"/>
  <circle cx="60.4" cy="67.65" r="2.4"/>
  <path class="cls-3" d="M120.3,127.55c13.98-9.98,13.98-19.97,0-29.95"/>
  <path class="cls-2" d="M120.3,127.55c13.98-9.98,13.98-19.97,0-29.95"/>
  <rect class="cls-4" x="90.35" y="97.6" width="29.95" height="29.95"/>
  <rect class="cls-2" x="90.35" y="97.6" width="29.95" height="29.95"/>
  <circle cx="90.35" cy="127.55" r="2.4"/>
  <path class="cls-4" d="M90.35,67.65c9.98-13.98,19.97-13.98,29.95,0"/>
  <path class="cls-2" d="M90.35,67.65c9.98-13.98,19.97-13.98,29.95,0"/>
  <rect class="cls-3" x="90.35" y="67.65" width="29.95" height="29.95"/>
  <rect class="cls-2" x="90.35" y="67.65" width="29.95" height="29.95"/>
  <circle cx="90.35" cy="97.6" r="2.4"/>
  <circle cx="90.35" cy="67.65" r="2.4"/>
  <circle cx="120.3" cy="127.55" r="2.4"/>
  <circle cx="120.3" cy="97.6" r="2.4"/>
  <circle cx="120.3" cy="67.65" r="2.4"/>
  <circle cx="60.4" cy="67.65" r="2.4"/>
  <circle cx="60.4" cy="97.6" r="2.4"/>
  <circle cx="60.4" cy="127.55" r="2.4"/>
  <circle class="cls-4" cx="60.4" cy="157.5" r="3"/>
  <circle class="cls-2" cx="60.4" cy="157.5" r="3"/>
  <circle class="cls-4" cx="60.4" cy="187.45" r="3"/>
  <circle class="cls-2" cx="60.4" cy="187.45" r="3"/>
  <circle class="cls-4" cx="60.4" cy="217.4" r="3"/>
  <circle class="cls-2" cx="60.4" cy="217.4" r="3"/>
  <circle class="cls-4" cx="60.4" cy="247.35" r="3"/>
  <circle class="cls-2" cx="60.4" cy="247.35" r="3"/>
  <circle cx="90.35" cy="67.65" r="2.4"/>
  <circle cx="90.35" cy="97.6" r="2.4"/>
  <circle cx="90.35" cy="127.55" r="2.4"/>
  <circle class="cls-4" cx="90.35" cy="157.5" r="3"/>
  <circle class="cls-2" cx="90.35" cy="157.5" r="3"/>
  <circle class="cls-4" cx="90.35" cy="187.45" r="3"/>
  <circle class="cls-2" cx="90.35" cy="187.45" r="3"/>
  <circle class="cls-4" cx="90.35" cy="217.4" r="3"/>
  <circle class="cls-2" cx="90.35" cy="217.4" r="3"/>
  <circle class="cls-4" cx="90.35" cy="247.35" r="3"/>
  <circle class="cls-2" cx="90.35" cy="247.35" r="3"/>
  <circle cx="120.3" cy="67.65" r="2.4"/>
  <circle cx="120.3" cy="97.6" r="2.4"/>
  <circle cx="120.3" cy="127.55" r="2.4"/>
  <circle class="cls-4" cx="120.3" cy="157.5" r="3"/>
  <circle class="cls-2" cx="120.3" cy="157.5" r="3"/>
  <circle class="cls-4" cx="120.3" cy="187.45" r="3"/>
  <circle class="cls-2" cx="120.3" cy="187.45" r="3"/>
  <circle class="cls-4" cx="120.3" cy="217.4" r="3"/>
  <circle class="cls-2" cx="120.3" cy="217.4" r="3"/>
  <circle class="cls-4" cx="120.3" cy="247.35" r="3"/>
  <circle class="cls-2" cx="120.3" cy="247.35" r="3"/>
  <circle class="cls-3" cx="150.25" cy="67.65" r="3" transform="translate(-11.52 36.33) rotate(-13.28)"/>
  <circle class="cls-2" cx="150.25" cy="67.65" r="3" transform="translate(-11.52 36.33) rotate(-13.28)"/>
  <circle class="cls-3" cx="150.25" cy="97.6" r="3" transform="translate(-18.4 37.13) rotate(-13.28)"/>
  <circle class="cls-2" cx="150.25" cy="97.6" r="3" transform="translate(-18.4 37.13) rotate(-13.28)"/>
  <circle class="cls-3" cx="150.25" cy="127.55" r="3"/>
  <circle class="cls-2" cx="150.25" cy="127.55" r="3"/>
  <circle class="cls-3" cx="150.25" cy="157.5" r="3"/>
  <circle class="cls-2" cx="150.25" cy="157.5" r="3"/>
  <circle class="cls-3" cx="150.25" cy="187.45" r="3"/>
  <circle class="cls-2" cx="150.25" cy="187.45" r="3"/>
  <circle class="cls-3" cx="150.25" cy="217.4" r="3"/>
  <circle class="cls-2" cx="150.25" cy="217.4" r="3"/>
  <circle class="cls-3" cx="150.25" cy="247.35" r="3"/>
  <circle class="cls-2" cx="150.25" cy="247.35" r="3"/>
  <circle class="cls-3" cx="180.2" cy="67.65" r="3" transform="translate(-10.72 43.21) rotate(-13.28)"/>
  <circle class="cls-2" cx="180.2" cy="67.65" r="3" transform="translate(-10.72 43.21) rotate(-13.28)"/>
  <circle class="cls-3" cx="180.2" cy="97.6" r="3" transform="translate(-17.6 44.01) rotate(-13.28)"/>
  <circle class="cls-2" cx="180.2" cy="97.6" r="3" transform="translate(-17.6 44.01) rotate(-13.28)"/>
  <circle class="cls-3" cx="180.2" cy="127.55" r="3"/>
  <circle class="cls-2" cx="180.2" cy="127.55" r="3"/>
  <circle class="cls-3" cx="180.2" cy="157.5" r="3"/>
  <circle class="cls-2" cx="180.2" cy="157.5" r="3"/>
  <circle class="cls-3" cx="180.2" cy="187.45" r="3"/>
  <circle class="cls-2" cx="180.2" cy="187.45" r="3"/>
  <circle class="cls-3" cx="180.2" cy="217.4" r="3"/>
  <circle class="cls-2" cx="180.2" cy="217.4" r="3"/>
  <circle class="cls-3" cx="180.2" cy="247.35" r="3"/>
  <circle class="cls-2" cx="180.2" cy="247.35" r="3"/>
  <circle class="cls-3" cx="210.15" cy="67.65" r="3" transform="translate(-9.92 50.09) rotate(-13.28)"/>
  <circle class="cls-2" cx="210.15" cy="67.65" r="3" transform="translate(-9.92 50.09) rotate(-13.28)"/>
  <circle class="cls-3" cx="210.15" cy="97.6" r="3" transform="translate(-16.8 50.89) rotate(-13.28)"/>
  <circle class="cls-2" cx="210.15" cy="97.6" r="3" transform="translate(-16.8 50.89) rotate(-13.28)"/>
  <circle class="cls-3" cx="210.15" cy="127.55" r="3"/>
  <circle class="cls-2" cx="210.15" cy="127.55" r="3"/>
  <circle class="cls-3" cx="210.15" cy="157.5" r="3"/>
  <circle class="cls-2" cx="210.15" cy="157.5" r="3"/>
  <circle class="cls-3" cx="210.15" cy="187.45" r="3"/>
  <circle class="cls-2" cx="210.15" cy="187.45" r="3"/>
  <circle class="cls-3" cx="210.15" cy="217.4" r="3"/>
  <circle class="cls-2" cx="210.15" cy="217.4" r="3"/>
  <circle class="cls-3" cx="210.15" cy="247.35" r="3"/>
  <circle class="cls-2" cx="210.15" cy="247.35" r="3"/>
  <circle class="cls-3" cx="240.1" cy="67.65" r="3" transform="translate(56.33 236.32) rotate(-58.28)"/>
  <circle class="cls-2" cx="240.1" cy="67.65" r="3" transform="translate(56.33 236.32) rotate(-58.28)"/>
  <circle class="cls-3" cx="240.1" cy="97.6" r="3" transform="translate(30.85 250.53) rotate(-58.28)"/>
  <circle class="cls-2" cx="240.1" cy="97.6" r="3" transform="translate(30.85 250.53) rotate(-58.28)"/>
  <circle class="cls-3" cx="240.1" cy="127.55" r="3" transform="translate(-31.69 120.84) rotate(-26.57)"/>
  <circle class="cls-2" cx="240.1" cy="127.55" r="3" transform="translate(-31.69 120.84) rotate(-26.57)"/>
  <circle class="cls-3" cx="240.1" cy="157.5" r="3" transform="translate(-45.09 124) rotate(-26.57)"/>
  <circle class="cls-2" cx="240.1" cy="157.5" r="3" transform="translate(-45.09 124) rotate(-26.57)"/>
  <circle class="cls-3" cx="240.1" cy="187.45" r="3" transform="translate(-58.48 127.17) rotate(-26.57)"/>
  <circle class="cls-2" cx="240.1" cy="187.45" r="3" transform="translate(-58.48 127.17) rotate(-26.57)"/>
  <circle class="cls-3" cx="240.1" cy="217.4" r="3" transform="translate(-83.77 213.32) rotate(-41.44)"/>
  <circle class="cls-2" cx="240.1" cy="217.4" r="3" transform="translate(-83.77 213.32) rotate(-41.44)"/>
  <circle class="cls-3" cx="240.1" cy="247.35" r="3" transform="translate(-99.02 185.49) rotate(-35.51)"/>
  <circle class="cls-2" cx="240.1" cy="247.35" r="3" transform="translate(-99.02 185.49) rotate(-35.51)"/>
  <line class="cls-1" x1="270.05" y1="157.5" x2="317.93" y2="157.5"/>
  <polygon class="cls-1" points="322.43 157.5 316.44 155.25 317.93 157.5 316.44 159.75 322.43 157.5"/>
  <path class="cls-4" d="M359.9,247.35c9.98,13.98,19.97,13.98,29.95,0"/>
  <path class="cls-2" d="M359.9,247.35c9.98,13.98,19.97,13.98,29.95,0"/>
  <rect class="cls-3" x="359.9" y="217.4" width="29.95" height="29.95"/>
  <rect class="cls-2" x="359.9" y="217.4" width="29.95" height="29.95"/>
  <circle cx="359.9" cy="247.35" r="2.4" transform="translate(-70.05 170.82) rotate(-24.41)"/>
  <path class="cls-3" d="M359.9,217.4c-13.98-9.98-13.98-19.97,0-29.95"/>
  <path class="cls-2" d="M359.9,217.4c-13.98-9.98-13.98-19.97,0-29.95"/>
  <rect class="cls-4" x="359.9" y="187.45" width="29.95" height="29.95"/>
  <rect class="cls-2" x="359.9" y="187.45" width="29.95" height="29.95"/>
  <circle cx="359.9" cy="217.4" r="2.4" transform="translate(-60.27 201.72) rotate(-29)"/>
  <rect class="cls-3" x="359.9" y="157.5" width="29.95" height="29.95"/>
  <rect class="cls-2" x="359.9" y="157.5" width="29.95" height="29.95"/>
  <circle cx="359.9" cy="187.45" r="2.4" transform="translate(-44.34 152) rotate(-22.5)"/>
  <path class="cls-3" d="M359.9,157.5c-13.98-9.98-13.98-19.97,0-29.95"/>
  <path class="cls-2" d="M359.9,157.5c-13.98-9.98-13.98-19.97,0-29.95"/>
  <rect class="cls-4" x="359.9" y="127.55" width="29.95" height="29.95"/>
  <rect class="cls-2" x="359.9" y="127.55" width="29.95" height="29.95"/>
  <circle cx="359.9" cy="157.5" r="2.4" transform="translate(-32.88 149.72) rotate(-22.5)"/>
  <rect class="cls-3" x="359.9" y="97.6" width="29.95" height="29.95"/>
  <rect class="cls-2" x="359.9" y="97.6" width="29.95" height="29.95"/>
  <circle cx="359.9" cy="127.55" r="2.4" transform="translate(-21.42 147.44) rotate(-22.5)"/>
  <path class="cls-3" d="M359.9,97.6c-13.98-9.98-13.98-19.97,0-29.95"/>
  <path class="cls-2" d="M359.9,97.6c-13.98-9.98-13.98-19.97,0-29.95"/>
  <rect class="cls-4" x="359.9" y="67.65" width="29.95" height="29.95"/>
  <rect class="cls-2" x="359.9" y="67.65" width="29.95" height="29.95"/>
  <circle cx="359.9" cy="97.6" r="2.4" transform="translate(-9.95 145.16) rotate(-22.5)"/>
  <circle cx="359.9" cy="67.65" r="2.4" transform="translate(1.51 142.88) rotate(-22.5)"/>
  <rect class="cls-4" x="389.85" y="217.4" width="29.95" height="29.95"/>
  <rect class="cls-2" x="389.85" y="217.4" width="29.95" height="29.95"/>
  <circle cx="389.85" cy="247.35" r="2.4" transform="translate(-67.37 183.2) rotate(-24.41)"/>
  <rect class="cls-3" x="389.85" y="187.45" width="29.95" height="29.95"/>
  <rect class="cls-2" x="389.85" y="187.45" width="29.95" height="29.95"/>
  <circle cx="389.85" cy="217.4" r="2.4" transform="translate(-56.52 216.24) rotate(-29)"/>
  <rect class="cls-4" x="389.85" y="157.5" width="29.95" height="29.95"/>
  <rect class="cls-2" x="389.85" y="157.5" width="29.95" height="29.95"/>
  <circle cx="389.85" cy="187.45" r="2.4" transform="translate(-42.06 163.46) rotate(-22.5)"/>
  <rect class="cls-3" x="389.85" y="127.55" width="29.95" height="29.95"/>
  <rect class="cls-2" x="389.85" y="127.55" width="29.95" height="29.95"/>
  <circle cx="389.85" cy="157.5" r="2.4" transform="translate(-30.6 161.18) rotate(-22.5)"/>
  <rect class="cls-4" x="389.85" y="97.6" width="29.95" height="29.95"/>
  <rect class="cls-2" x="389.85" y="97.6" width="29.95" height="29.95"/>
  <circle cx="389.85" cy="127.55" r="2.4" transform="translate(-19.14 158.9) rotate(-22.5)"/>
  <path class="cls-4" d="M389.85,67.65c9.98-13.98,19.97-13.98,29.95,0"/>
  <path class="cls-2" d="M389.85,67.65c9.98-13.98,19.97-13.98,29.95,0"/>
  <rect class="cls-3" x="389.85" y="67.65" width="29.95" height="29.95"/>
  <rect class="cls-2" x="389.85" y="67.65" width="29.95" height="29.95"/>
  <circle cx="389.85" cy="97.6" r="2.4" transform="translate(-7.67 156.62) rotate(-22.5)"/>
  <circle cx="389.85" cy="67.65" r="2.4" transform="translate(3.79 154.34) rotate(-22.5)"/>
  <path class="cls-4" d="M419.8,247.35c9.98,13.98,19.97,13.98,29.95,0"/>
  <path class="cls-2" d="M419.8,247.35c9.98,13.98,19.97,13.98,29.95,0"/>
  <rect class="cls-3" x="419.8" y="217.4" width="29.95" height="29.95"/>
  <rect class="cls-2" x="419.8" y="217.4" width="29.95" height="29.95"/>
  <circle cx="419.8" cy="247.35" r="2.4" transform="translate(-64.69 195.57) rotate(-24.41)"/>
  <rect class="cls-4" x="419.8" y="187.45" width="29.95" height="29.95"/>
  <rect class="cls-2" x="419.8" y="187.45" width="29.95" height="29.95"/>
  <circle cx="419.8" cy="217.4" r="2.4" transform="translate(-52.76 230.76) rotate(-29)"/>
  <rect class="cls-3" x="419.8" y="157.5" width="29.95" height="29.95"/>
  <rect class="cls-2" x="419.8" y="157.5" width="29.95" height="29.95"/>
  <circle cx="419.8" cy="187.45" r="2.4" transform="translate(-39.78 174.92) rotate(-22.5)"/>
  <rect class="cls-4" x="419.8" y="127.55" width="29.95" height="29.95"/>
  <rect class="cls-2" x="419.8" y="127.55" width="29.95" height="29.95"/>
  <circle cx="419.8" cy="157.5" r="2.4" transform="translate(-28.32 172.64) rotate(-22.5)"/>
  <rect class="cls-3" x="419.8" y="97.6" width="29.95" height="29.95"/>
  <rect class="cls-2" x="419.8" y="97.6" width="29.95" height="29.95"/>
  <circle cx="419.8" cy="127.55" r="2.4" transform="translate(-16.86 170.36) rotate(-22.5)"/>
  <rect class="cls-4" x="419.8" y="67.65" width="29.95" height="29.95"/>
  <rect class="cls-2" x="419.8" y="67.65" width="29.95" height="29.95"/>
  <circle cx="419.8" cy="97.6" r="2.4" transform="translate(-5.39 168.08) rotate(-22.5)"/>
  <circle cx="419.8" cy="67.65" r="2.4" transform="translate(6.07 165.8) rotate(-22.5)"/>
  <rect class="cls-4" x="449.75" y="217.4" width="29.95" height="29.95"/>
  <rect class="cls-2" x="449.75" y="217.4" width="29.95" height="29.95"/>
  <circle cx="449.75" cy="247.35" r="2.4" transform="translate(-62.02 207.95) rotate(-24.41)"/>
  <rect class="cls-3" x="449.75" y="187.45" width="29.95" height="29.95"/>
  <rect class="cls-2" x="449.75" y="187.45" width="29.95" height="29.95"/>
  <circle cx="449.75" cy="217.4" r="2.4" transform="translate(-49.01 245.28) rotate(-29)"/>
  <rect class="cls-4" x="449.75" y="157.5" width="29.95" height="29.95"/>
  <rect class="cls-2" x="449.75" y="157.5" width="29.95" height="29.95"/>
  <circle cx="449.75" cy="187.45" r="2.4" transform="translate(-37.5 186.38) rotate(-22.5)"/>
  <rect class="cls-3" x="449.75" y="127.55" width="29.95" height="29.95"/>
  <rect class="cls-2" x="449.75" y="127.55" width="29.95" height="29.95"/>
  <circle cx="449.75" cy="157.5" r="2.4" transform="translate(-26.04 184.1) rotate(-22.5)"/>
  <rect class="cls-4" x="449.75" y="97.6" width="29.95" height="29.95"/>
  <rect class="cls-2" x="449.75" y="97.6" width="29.95" height="29.95"/>
  <circle cx="449.75" cy="127.55" r="2.4" transform="translate(-14.58 181.82) rotate(-22.5)"/>
  <path class="cls-4" d="M449.75,67.65c9.98-13.98,19.97-13.98,29.95,0"/>
  <path class="cls-2" d="M449.75,67.65c9.98-13.98,19.97-13.98,29.95,0"/>
  <rect class="cls-3" x="449.75" y="67.65" width="29.95" height="29.95"/>
  <rect class="cls-2" x="449.75" y="67.65" width="29.95" height="29.95"/>
  <circle cx="449.75" cy="97.6" r="2.4" transform="translate(-3.11 179.54) rotate(-22.5)"/>
  <circle cx="449.75" cy="67.65" r="2.4" transform="translate(8.35 177.26) rotate(-22.5)"/>
  <path class="cls-4" d="M479.7,247.35c9.98,13.98,19.97,13.98,29.95,0"/>
  <path class="cls-2" d="M479.7,247.35c9.98,13.98,19.97,13.98,29.95,0"/>
  <rect class="cls-3" x="479.7" y="217.4" width="29.95" height="29.95"/>
  <rect class="cls-2" x="479.7" y="217.4" width="29.95" height="29.95"/>
  <circle cx="479.7" cy="247.35" r="2.4" transform="translate(-59.34 220.33) rotate(-24.41)"/>
  <rect class="cls-4" x="479.7" y="187.45" width="29.95" height="29.95"/>
  <rect class="cls-2" x="479.7" y="187.45" width="29.95" height="29.95"/>
  <circle cx="479.7" cy="217.4" r="2.4" transform="translate(-45.25 259.8) rotate(-29)"/>
  <rect class="cls-3" x="479.7" y="157.5" width="29.95" height="29.95"/>
  <rect class="cls-2" x="479.7" y="157.5" width="29.95" height="29.95"/>
  <circle cx="479.7" cy="187.45" r="2.4" transform="translate(-35.22 197.84) rotate(-22.5)"/>
  <rect class="cls-4" x="479.7" y="127.55" width="29.95" height="29.95"/>
  <rect class="cls-2" x="479.7" y="127.55" width="29.95" height="29.95"/>
  <circle cx="479.7" cy="157.5" r="2.4" transform="translate(-23.76 195.56) rotate(-22.5)"/>
  <rect class="cls-3" x="479.7" y="97.6" width="29.95" height="29.95"/>
  <rect class="cls-2" x="479.7" y="97.6" width="29.95" height="29.95"/>
  <circle cx="479.7" cy="127.55" r="2.4" transform="translate(-12.3 193.28) rotate(-22.5)"/>
  <rect class="cls-4" x="479.7" y="67.65" width="29.95" height="29.95"/>
  <rect class="cls-2" x="479.7" y="67.65" width="29.95" height="29.95"/>
  <circle cx="479.7" cy="97.6" r="2.4" transform="translate(-.83 191) rotate(-22.5)"/>
  <circle cx="479.7" cy="67.65" r="2.4" transform="translate(10.63 188.72) rotate(-22.5)"/>
  <path class="cls-3" d="M539.6,247.35c13.98-9.98,13.98-19.97,0-29.95"/>
  <path class="cls-2" d="M539.6,247.35c13.98-9.98,13.98-19.97,0-29.95"/>
  <rect class="cls-4" x="509.65" y="217.4" width="29.95" height="29.95"/>
  <rect class="cls-2" x="509.65" y="217.4" width="29.95" height="29.95"/>
  <path d="M509.65,244.95c-1.32,0-2.4,1.07-2.4,2.4s1.07,2.4,2.4,2.4,2.4-1.07,2.4-2.4-1.07-2.4-2.4-2.4Z"/>
  <rect class="cls-3" x="509.65" y="187.45" width="29.95" height="29.95"/>
  <rect class="cls-2" x="509.65" y="187.45" width="29.95" height="29.95"/>
  <path d="M509.65,215c-1.32,0-2.4,1.07-2.4,2.4s1.07,2.4,2.4,2.4,2.4-1.07,2.4-2.4-1.07-2.4-2.4-2.4Z"/>
  <path class="cls-3" d="M539.6,187.45c13.98-9.98,13.98-19.97,0-29.95"/>
  <path class="cls-2" d="M539.6,187.45c13.98-9.98,13.98-19.97,0-29.95"/>
  <rect class="cls-4" x="509.65" y="157.5" width="29.95" height="29.95"/>
  <rect class="cls-2" x="509.65" y="157.5" width="29.95" height="29.95"/>
  <path d="M509.65,185.05c-1.32,0-2.4,1.07-2.4,2.4s1.07,2.4,2.4,2.4,2.4-1.07,2.4-2.4-1.07-2.4-2.4-2.4Z"/>
  <rect class="cls-3" x="509.65" y="127.55" width="29.95" height="29.95"/>
  <rect class="cls-2" x="509.65" y="127.55" width="29.95" height="29.95"/>
  <path d="M509.65,155.1c-1.32,0-2.4,1.07-2.4,2.4s1.07,2.4,2.4,2.4,2.4-1.07,2.4-2.4-1.07-2.4-2.4-2.4Z"/>
  <path class="cls-3" d="M539.6,127.55c13.98-9.98,13.98-19.97,0-29.95"/>
  <path class="cls-2" d="M539.6,127.55c13.98-9.98,13.98-19.97,0-29.95"/>
  <rect class="cls-4" x="509.65" y="97.6" width="29.95" height="29.95"/>
  <rect class="cls-2" x="509.65" y="97.6" width="29.95" height="29.95"/>
  <path d="M509.65,125.15c-1.32,0-2.4,1.07-2.4,2.4s1.07,2.4,2.4,2.4,2.4-1.07,2.4-2.4-1.07-2.4-2.4-2.4Z"/>
  <path class="cls-4" d="M509.65,67.65c9.98-13.98,19.97-13.98,29.95,0"/>
  <path class="cls-2" d="M509.65,67.65c9.98-13.98,19.97-13.98,29.95,0"/>
  <rect class="cls-3" x="509.65" y="67.65" width="29.95" height="29.95"/>
  <rect class="cls-2" x="509.65" y="67.65" width="29.95" height="29.95"/>
  <path d="M509.65,95.2c-1.32,0-2.4,1.07-2.4,2.4s1.07,2.4,2.4,2.4,2.4-1.07,2.4-2.4-1.07-2.4-2.4-2.4Z"/>
  <path d="M509.65,65.25c-1.32,0-2.4,1.07-2.4,2.4s1.07,2.4,2.4,2.4,2.4-1.07,2.4-2.4-1.07-2.4-2.4-2.4Z"/>
  <path d="M539.6,244.95c-1.32,0-2.4,1.07-2.4,2.4s1.07,2.4,2.4,2.4,2.4-1.07,2.4-2.4-1.07-2.4-2.4-2.4Z"/>
  <path d="M539.6,215c-1.32,0-2.4,1.07-2.4,2.4s1.07,2.4,2.4,2.4,2.4-1.07,2.4-2.4-1.07-2.4-2.4-2.4Z"/>
  <path d="M539.6,185.05c-1.32,0-2.4,1.07-2.4,2.4s1.07,2.4,2.4,2.4,2.4-1.07,2.4-2.4-1.07-2.4-2.4-2.4Z"/>
  <path d="M539.6,155.1c-1.32,0-2.4,1.07-2.4,2.4s1.07,2.4,2.4,2.4,2.4-1.07,2.4-2.4-1.07-2.4-2.4-2.4Z"/>
  <path d="M539.6,125.15c-1.32,0-2.4,1.07-2.4,2.4s1.07,2.4,2.4,2.4,2.4-1.07,2.4-2.4-1.07-2.4-2.4-2.4Z"/>
  <path d="M539.6,95.2c-1.32,0-2.4,1.07-2.4,2.4s1.07,2.4,2.4,2.4,2.4-1.07,2.4-2.4-1.07-2.4-2.4-2.4Z"/>
  <path d="M539.6,65.25c-1.32,0-2.4,1.07-2.4,2.4s1.07,2.4,2.4,2.4,2.4-1.07,2.4-2.4-1.07-2.4-2.4-2.4Z"/>
</svg>