<?xml version="1.0" encoding="UTF-8"?>
<svg id="Layer_1" data-name="Layer 1" xmlns="http://www.w3.org/2000/svg" viewBox="0 0 560.38 190.92">
  <defs>
    <style>
      .cls-1 {
        stroke: #888;
        stroke-width: 5px;
      }

      .cls-1, .cls-2 {
        fill: none;
      }

      .cls-3 {
        fill: #ff4136;
      }

      .cls-4 {
        fill: #7fdbff;
      }

      .cls-2 {
        stroke: #000;
      }
    </style>
  </defs>
  <circle cx="39.72" cy="10.42" r="2.27"/>
  <circle cx="11.37" cy="10.42" r="2.27"/>
  <circle cx="39.72" cy="38.77" r="2.27"/>
  <circle cx="11.37" cy="38.77" r="2.27"/>
  <rect class="cls-3" x="11.37" y="10.42" width="28.35" height="28.35"/>
  <rect class="cls-2" x="11.37" y="10.42" width="28.35" height="28.35"/>
  <path d="M51.08,1.06c0,.21-.06.26-.29.28-.5.02-.95.2-1.35.54-.1.08-.28.26-.54.54-.36.41-.92,1-1.67,1.79l1.4,3.33c.09.22.18.35.25.4s.3.06.64.06c.17.01.24.07.24.18,0,.17-.09.25-.25.25-.2,0-.97-.03-1.2-.03l-1.38.03c-.14,0-.21-.06-.21-.18,0-.14.09-.23.25-.25.26-.03.44-.09.54-.19.03-.03.04-.06.06-.08-.36-.9-.75-1.78-1.12-2.67-.67.74-1.36,1.46-2.05,2.19-.19.2-.29.35-.29.46,0,.17.13.26.4.29.12.01.18.07.18.17,0,.18-.08.26-.24.26-.23,0-.99-.03-1.22-.03-.19,0-.84.03-1.02.03-.14,0-.15-.06-.19-.15,0-.17.1-.26.29-.28.61-.03,1.12-.3,1.57-.77.06-.03.1-.08.13-.11l2.29-2.45-1.28-3c-.13-.32-.29-.32-.78-.32-.2,0-.3-.06-.3-.17,0-.18.08-.26.24-.26.23,0,.99.03,1.22.03.26,0,1.11-.03,1.38-.03.14,0,.21.06.21.18,0,.14-.09.23-.26.25-.26.02-.45.09-.55.2-.03.02-.04.04-.06.07.32.75.63,1.49.95,2.23l1.72-1.85c.13-.14.2-.26.2-.36,0-.17-.13-.25-.4-.29-.12-.01-.18-.07-.18-.17,0-.18.09-.26.25-.26.22,0,.99.03,1.21.03.19,0,.84-.03,1.02-.03.14,0,.15.06.19.15Z"/>
  <path d="M9.07,1.06c0,.21-.06.26-.29.28-.5.02-.95.2-1.35.54-.1.08-.28.26-.54.54-.36.41-.92,1-1.67,1.79l1.4,3.33c.09.22.18.35.25.4s.3.06.64.06c.17.01.24.07.24.18,0,.17-.09.25-.25.25-.2,0-.97-.03-1.2-.03l-1.38.03c-.14,0-.21-.06-.21-.18,0-.14.09-.23.25-.25.26-.03.44-.09.54-.19.03-.03.04-.06.06-.08-.36-.9-.75-1.78-1.12-2.67-.67.74-1.36,1.46-2.05,2.19-.19.2-.29.35-.29.46,0,.17.13.26.4.29.12.01.18.07.18.17,0,.18-.08.26-.24.26-.23,0-.99-.03-1.22-.03-.19,0-.84.03-1.02.03-.14,0-.15-.06-.19-.15,0-.17.1-.26.29-.28.61-.03,1.12-.3,1.57-.77.06-.03.1-.08.13-.11l2.29-2.45-1.28-3c-.13-.32-.29-.32-.78-.32-.2,0-.3-.06-.3-.17,0-.18.08-.26.24-.26.23,0,.99.03,1.22.03.26,0,1.11-.03,1.38-.03.14,0,.21.06.21.18,0,.14-.09.23-.26.25-.26.02-.45.09-.55.2-.03.02-.04.04-.06.07.32.75.63,1.49.95,2.23l1.72-1.85c.13-.14.2-.26.2-.36,0-.17-.13-.25-.4-.29-.12-.01-.18-.07-.18-.17,0-.18.09-.26.25-.26.22,0,.99.03,1.21.03.19,0,.84-.03,1.02-.03.14,0,.15.06.19.15Z"/>
  <path d="M51.08,40.92c0,.21-.06.26-.29.28-.5.02-.95.2-1.35.54-.1.08-.28.26-.54.54-.36.41-.92,1-1.67,1.79l1.4,3.33c.09.22.18.35.25.4s.3.06.64.06c.17.01.24.07.24.18,0,.17-.09.25-.25.25-.2,0-.97-.03-1.2-.03l-1.38.03c-.14,0-.21-.06-.21-.18,0-.14.09-.23.25-.25.26-.03.44-.09.54-.19.03-.03.04-.06.06-.08-.36-.9-.75-1.78-1.12-2.67-.67.74-1.36,1.46-2.05,2.19-.19.2-.29.35-.29.46,0,.17.13.26.4.29.12.01.18.07.18.17,0,.18-.08.26-.24.26-.23,0-.99-.03-1.22-.03-.19,0-.84.03-1.02.03-.14,0-.15-.06-.19-.15,0-.17.1-.26.29-.28.61-.03,1.12-.3,1.57-.77.06-.03.1-.08.13-.11l2.29-2.45-1.28-3c-.13-.32-.29-.32-.78-.32-.2,0-.3-.06-.3-.17,0-.18.08-.26.24-.26.23,0,.99.03,1.22.03.26,0,1.11-.03,1.38-.03.14,0,.21.06.21.18,0,.14-.09.23-.26.25-.26.02-.45.09-.55.2-.03.02-.04.04-.06.07.32.75.63,1.49.95,2.23l1.72-1.85c.13-.14.2-.26.2-.36,0-.17-.13-.25-.4-.29-.12-.01-.18-.07-.18-.17,0-.18.09-.26.25-.26.22,0,.99.03,1.21.03.19,0,.84-.03,1.02-.03.14,0,.15.06.19.15Z"/>
  <path d="M9.07,40.92c0,.21-.06.26-.29.28-.5.02-.95.2-1.35.54-.1.08-.28.26-.54.54-.36.41-.92,1-1.67,1.79l1.4,3.33c.09.22.18.35.25.4s.3.06.64.06c.17.01.24.07.24.18,0,.17-.09.25-.25.25-.2,0-.97-.03-1.2-.03l-1.38.03c-.14,0-.21-.06-.21-.18,0-.14.09-.23.25-.25.26-.03.44-.09.54-.19.03-.03.04-.06.06-.08-.36-.9-.75-1.78-1.12-2.67-.67.74-1.36,1.46-2.05,2.19-.19.2-.29.35-.29.46,0,.17.13.26.4.29.12.01.18.07.18.17,0,.18-.08.26-.24.26-.23,0-.99-.03-1.22-.03-.19,0-.84.03-1.02.03-.14,0-.15-.06-.19-.15,0-.17.1-.26.29-.28.61-.03,1.12-.3,1.57-.77.06-.03.1-.08.13-.11l2.29-2.45-1.28-3c-.13-.32-.29-.32-.78-.32-.2,0-.3-.06-.3-.17,0-.18.08-.26.24-.26.23,0,.99.03,1.22.03.26,0,1.11-.03,1.38-.03.14,0,.21.06.21.18,0,.14-.09.23-.26.25-.26.02-.45.09-.55.2-.03.02-.04.04-.06.07.32.75.63,1.49.95,2.23l1.72-1.85c.13-.14.2-.26.2-.36,0-.17-.13-.25-.4-.29-.12-.01-.18-.07-.18-.17,0-.18.09-.26.25-.26.22,0,.99.03,1.21.03.19,0,.84-.03,1.02-.03.14,0,.15.06.19.15Z"/>
  <circle cx="39.72" cy="67.11" r="2.27"/>
  <circle cx="11.37" cy="67.11" r="2.27"/>
  <circle cx="39.72" cy="95.46" r="2.27"/>
  <circle cx="11.37" cy="95.46" r="2.27"/>
  <rect class="cls-4" x="11.37" y="67.11" width="28.35" height="28.35"/>
  <rect class="cls-2" x="11.37" y="67.11" width="28.35" height="28.35"/>
  <path d="M43.62,64.65h1.76c.88,0,1.52-.19,1.9-.57.36-.35.66-.9.9-1.65.07-.21.14-.31.22-.31.12,0,.19.06.19.17,0,.04-.03.12-.04.17l-.77,2.41c-.07.23-.1.25-.39.25h-4.85c-.12,0-.19-.04-.19-.14l.04-.22,6.02-6.72h-1.67c-.75,0-1.32.14-1.71.44-.39.3-.69.81-.92,1.53-.07.09-.13.13-.19.13-.12,0-.14-.07-.18-.15.01-.06.02-.12.04-.18l.59-1.95c.07-.22.1-.25.37-.25h4.73c.12,0,.18.04.18.14,0,.02-.01.09-.03.19l-6.02,6.72Z"/>
  <path d="M3.01,64.65h1.76c.88,0,1.52-.19,1.9-.57.36-.35.66-.9.9-1.65.07-.21.14-.31.22-.31.12,0,.19.06.19.17,0,.04-.03.12-.04.17l-.77,2.41c-.07.23-.1.25-.39.25H1.94c-.12,0-.19-.04-.19-.14l.04-.22,6.02-6.72h-1.67c-.75,0-1.32.14-1.71.44-.39.3-.69.81-.92,1.53-.07.09-.13.13-.19.13-.12,0-.14-.07-.18-.15.01-.06.02-.12.04-.18l.59-1.95c.07-.22.1-.25.37-.25h4.73c.12,0,.18.04.18.14,0,.02-.01.09-.03.19l-6.02,6.72Z"/>
  <path d="M43.62,104.51h1.76c.88,0,1.52-.19,1.9-.57.36-.35.66-.9.9-1.65.07-.21.14-.31.22-.31.12,0,.19.06.19.17,0,.04-.03.12-.04.17l-.77,2.41c-.07.23-.1.25-.39.25h-4.85c-.12,0-.19-.04-.19-.14l.04-.22,6.02-6.72h-1.67c-.75,0-1.32.14-1.71.44s-.69.81-.92,1.53c-.07.09-.13.13-.19.13-.12,0-.14-.07-.18-.15.01-.06.02-.12.04-.18l.59-1.95c.07-.22.1-.25.37-.25h4.73c.12,0,.18.04.18.14,0,.02-.01.09-.03.19l-6.02,6.72Z"/>
  <path d="M3.01,104.51h1.76c.88,0,1.52-.19,1.9-.57.36-.35.66-.9.9-1.65.07-.21.14-.31.22-.31.12,0,.19.06.19.17,0,.04-.03.12-.04.17l-.77,2.41c-.07.23-.1.25-.39.25H1.94c-.12,0-.19-.04-.19-.14l.04-.22,6.02-6.72h-1.67c-.75,0-1.32.14-1.71.44s-.69.81-.92,1.53c-.07.09-.13.13-.19.13-.12,0-.14-.07-.18-.15.01-.06.02-.12.04-.18l.59-1.95c.07-.22.1-.25.37-.25h4.73c.12,0,.18.04.18.14,0,.02-.01.09-.03.19l-6.02,6.72Z"/>
  <path class="cls-4" d="M96.41,67.11c9.45,13.23,18.9,13.23,28.35,0"/>
  <path class="cls-2" d="M96.41,67.11c9.45,13.23,18.9,13.23,28.35,0"/>
  <rect class="cls-3" x="96.41" y="38.77" width="28.35" height="28.35"/>
  <rect class="cls-2" x="96.41" y="38.77" width="28.35" height="28.35"/>
  <circle cx="96.41" cy="67.11" r="2.27"/>
  <path class="cls-3" d="M96.41,38.77c-13.23-9.45-13.23-18.9,0-28.35"/>
  <path class="cls-2" d="M96.41,38.77c-13.23-9.45-13.23-18.9,0-28.35"/>
  <rect class="cls-4" x="96.41" y="10.42" width="28.35" height="28.35"/>
  <rect class="cls-2" x="96.41" y="10.42" width="28.35" height="28.35"/>
  <circle cx="96.41" cy="38.77" r="2.27"/>
  <circle cx="96.41" cy="10.42" r="2.27"/>
  <path class="cls-3" d="M153.1,67.11c13.23-9.45,13.23-18.9,0-28.35"/>
  <path class="cls-2" d="M153.1,67.11c13.23-9.45,13.23-18.9,0-28.35"/>
  <rect class="cls-4" x="124.76" y="38.77" width="28.35" height="28.35"/>
  <rect class="cls-2" x="124.76" y="38.77" width="28.35" height="28.35"/>
  <circle cx="124.76" cy="67.11" r="2.27"/>
  <path class="cls-4" d="M124.76,10.42c9.45-13.23,18.9-13.23,28.35,0"/>
  <path class="cls-2" d="M124.76,10.42c9.45-13.23,18.9-13.23,28.35,0"/>
  <rect class="cls-3" x="124.76" y="10.42" width="28.35" height="28.35"/>
  <rect class="cls-2" x="124.76" y="10.42" width="28.35" height="28.35"/>
  <circle cx="124.76" cy="38.77" r="2.27"/>
  <circle cx="124.76" cy="10.42" r="2.27"/>
  <circle cx="153.1" cy="67.11" r="2.27"/>
  <circle cx="153.1" cy="38.77" r="2.27"/>
  <circle cx="153.1" cy="10.42" r="2.27"/>
  <circle cx="96.41" cy="10.42" r="2.27"/>
  <circle cx="96.41" cy="38.77" r="2.27"/>
  <circle cx="96.41" cy="67.11" r="2.27"/>
  <circle class="cls-4" cx="96.41" cy="95.46" r="2.83"/>
  <circle class="cls-2" cx="96.41" cy="95.46" r="2.83"/>
  <circle class="cls-4" cx="96.41" cy="123.81" r="2.83"/>
  <circle class="cls-2" cx="96.41" cy="123.81" r="2.83"/>
  <circle class="cls-4" cx="96.41" cy="152.15" r="2.83"/>
  <circle class="cls-2" cx="96.41" cy="152.15" r="2.83"/>
  <circle class="cls-4" cx="96.41" cy="180.5" r="2.83"/>
  <circle class="cls-2" cx="96.41" cy="180.5" r="2.83"/>
  <circle cx="124.76" cy="10.42" r="2.27"/>
  <circle cx="124.76" cy="38.77" r="2.27"/>
  <circle cx="124.76" cy="67.11" r="2.27"/>
  <circle class="cls-4" cx="124.76" cy="95.46" r="2.83"/>
  <circle class="cls-2" cx="124.76" cy="95.46" r="2.83"/>
  <circle class="cls-4" cx="124.76" cy="123.81" r="2.83"/>
  <circle class="cls-2" cx="124.76" cy="123.81" r="2.83"/>
  <circle class="cls-4" cx="124.76" cy="152.15" r="2.83"/>
  <circle class="cls-2" cx="124.76" cy="152.15" r="2.83"/>
  <circle class="cls-4" cx="124.76" cy="180.5" r="2.83"/>
  <circle class="cls-2" cx="124.76" cy="180.5" r="2.83"/>
  <circle cx="153.1" cy="10.42" r="2.27"/>
  <circle cx="153.1" cy="38.77" r="2.27"/>
  <circle cx="153.1" cy="67.11" r="2.27"/>
  <circle class="cls-4" cx="153.1" cy="95.46" r="2.83"/>
  <circle class="cls-2" cx="153.1" cy="95.46" r="2.83"/>
  <circle class="cls-4" cx="153.1" cy="123.81" r="2.83"/>
  <circle class="cls-2" cx="153.1" cy="123.81" r="2.83"/>
  <circle class="cls-4" cx="153.1" cy="152.15" r="2.83"/>
  <circle class="cls-2" cx="153.1" cy="152.15" r="2.83"/>
  <circle class="cls-4" cx="153.1" cy="180.5" r="2.83"/>
  <circle class="cls-2" cx="153.1" cy="180.5" r="2.83"/>
  <circle class="cls-3" cx="181.45" cy="10.42" r="2.83" transform="translate(2.46 41.97) rotate(-13.28)"/>
  <circle class="cls-2" cx="181.45" cy="10.42" r="2.83" transform="translate(2.46 41.97) rotate(-13.28)"/>
  <circle class="cls-3" cx="181.45" cy="38.77" r="2.83" transform="translate(-4.05 42.73) rotate(-13.28)"/>
  <circle class="cls-2" cx="181.45" cy="38.77" r="2.83" transform="translate(-4.05 42.73) rotate(-13.28)"/>
  <circle class="cls-3" cx="181.45" cy="67.11" r="2.83"/>
  <circle class="cls-2" cx="181.45" cy="67.11" r="2.83"/>
  <circle class="cls-3" cx="181.45" cy="95.46" r="2.83"/>
  <circle class="cls-2" cx="181.45" cy="95.46" r="2.83"/>
  <circle class="cls-3" cx="181.45" cy="123.81" r="2.83"/>
  <circle class="cls-2" cx="181.45" cy="123.81" r="2.83"/>
  <circle class="cls-3" cx="181.45" cy="152.15" r="2.83"/>
  <circle class="cls-2" cx="181.45" cy="152.15" r="2.83"/>
  <circle class="cls-3" cx="181.45" cy="180.5" r="2.83"/>
  <circle class="cls-2" cx="181.45" cy="180.5" r="2.83"/>
  <circle class="cls-3" cx="209.8" cy="10.42" r="2.83" transform="translate(3.22 48.48) rotate(-13.28)"/>
  <circle class="cls-2" cx="209.8" cy="10.42" r="2.83" transform="translate(3.22 48.48) rotate(-13.28)"/>
  <circle class="cls-3" cx="209.8" cy="38.77" r="2.83" transform="translate(-3.29 49.24) rotate(-13.28)"/>
  <circle class="cls-2" cx="209.8" cy="38.77" r="2.83" transform="translate(-3.29 49.24) rotate(-13.28)"/>
  <circle class="cls-3" cx="209.8" cy="67.11" r="2.83"/>
  <circle class="cls-2" cx="209.8" cy="67.11" r="2.83"/>
  <circle class="cls-3" cx="209.8" cy="95.46" r="2.83"/>
  <circle class="cls-2" cx="209.8" cy="95.46" r="2.83"/>
  <circle class="cls-3" cx="209.8" cy="123.81" r="2.83"/>
  <circle class="cls-2" cx="209.8" cy="123.81" r="2.83"/>
  <circle class="cls-3" cx="209.8" cy="152.15" r="2.83"/>
  <circle class="cls-2" cx="209.8" cy="152.15" r="2.83"/>
  <circle class="cls-3" cx="209.8" cy="180.5" r="2.83"/>
  <circle class="cls-2" cx="209.8" cy="180.5" r="2.83"/>
  <circle class="cls-3" cx="238.14" cy="10.42" r="2.83" transform="translate(3.98 54.99) rotate(-13.28)"/>
  <circle class="cls-2" cx="238.14" cy="10.42" r="2.83" transform="translate(3.98 54.99) rotate(-13.28)"/>
  <circle class="cls-3" cx="238.14" cy="38.77" r="2.83" transform="translate(-2.54 55.75) rotate(-13.28)"/>
  <circle class="cls-2" cx="238.14" cy="38.77" r="2.83" transform="translate(-2.54 55.75) rotate(-13.28)"/>
  <circle class="cls-3" cx="238.14" cy="67.11" r="2.83"/>
  <circle class="cls-2" cx="238.14" cy="67.11" r="2.83"/>
  <circle class="cls-3" cx="238.14" cy="95.46" r="2.83"/>
  <circle class="cls-2" cx="238.14" cy="95.46" r="2.83"/>
  <circle class="cls-3" cx="238.14" cy="123.81" r="2.83"/>
  <circle class="cls-2" cx="238.14" cy="123.81" r="2.83"/>
  <circle class="cls-3" cx="238.14" cy="152.15" r="2.83"/>
  <circle class="cls-2" cx="238.14" cy="152.15" r="2.83"/>
  <circle class="cls-3" cx="238.14" cy="180.5" r="2.83"/>
  <circle class="cls-2" cx="238.14" cy="180.5" r="2.83"/>
  <circle class="cls-3" cx="266.49" cy="10.42" r="2.83" transform="translate(117.52 231.63) rotate(-58.28)"/>
  <circle class="cls-2" cx="266.49" cy="10.42" r="2.83" transform="translate(117.52 231.63) rotate(-58.28)"/>
  <circle class="cls-3" cx="266.49" cy="38.77" r="2.83" transform="translate(93.41 245.08) rotate(-58.28)"/>
  <circle class="cls-2" cx="266.49" cy="38.77" r="2.83" transform="translate(93.41 245.08) rotate(-58.28)"/>
  <circle class="cls-3" cx="266.49" cy="67.11" r="2.83" transform="translate(-1.88 126.26) rotate(-26.57)"/>
  <circle class="cls-2" cx="266.49" cy="67.11" r="2.83" transform="translate(-1.88 126.26) rotate(-26.57)"/>
  <circle class="cls-3" cx="266.49" cy="95.46" r="2.83" transform="translate(-14.56 129.26) rotate(-26.57)"/>
  <circle class="cls-2" cx="266.49" cy="95.46" r="2.83" transform="translate(-14.56 129.26) rotate(-26.57)"/>
  <circle class="cls-3" cx="266.49" cy="123.81" r="2.83" transform="translate(-27.23 132.25) rotate(-26.57)"/>
  <circle class="cls-2" cx="266.49" cy="123.81" r="2.83" transform="translate(-27.23 132.25) rotate(-26.57)"/>
  <circle class="cls-3" cx="266.49" cy="152.15" r="2.83" transform="translate(-33.99 214.45) rotate(-41.44)"/>
  <circle class="cls-2" cx="266.49" cy="152.15" r="2.83" transform="translate(-33.99 214.45) rotate(-41.44)"/>
  <circle class="cls-3" cx="266.49" cy="180.5" r="2.83" transform="translate(-55.28 188.39) rotate(-35.51)"/>
  <circle class="cls-2" cx="266.49" cy="180.5" r="2.83" transform="translate(-55.28 188.39) rotate(-35.51)"/>
  <line class="cls-1" x1="294.84" y1="95.46" x2="340.16" y2="95.46"/>
  <polygon class="cls-1" points="344.41 95.46 338.74 93.33 340.16 95.46 338.74 97.59 344.41 95.46"/>
  <path class="cls-4" d="M379.88,180.5c9.45,13.23,18.9,13.23,28.35,0"/>
  <path class="cls-2" d="M379.88,180.5c9.45,13.23,18.9,13.23,28.35,0"/>
  <rect class="cls-3" x="379.88" y="152.15" width="28.35" height="28.35"/>
  <rect class="cls-2" x="379.88" y="152.15" width="28.35" height="28.35"/>
  <circle cx="379.88" cy="180.5" r="2.27" transform="translate(-40.64 173.1) rotate(-24.41)"/>
  <path class="cls-3" d="M379.88,152.15c-13.23-9.45-13.23-18.9,0-28.35"/>
  <path class="cls-2" d="M379.88,152.15c-13.23-9.45-13.23-18.9,0-28.35"/>
  <rect class="cls-4" x="379.88" y="123.81" width="28.35" height="28.35"/>
  <rect class="cls-2" x="379.88" y="123.81" width="28.35" height="28.35"/>
  <circle cx="379.88" cy="152.15" r="2.27" transform="translate(-26.14 203.23) rotate(-29)"/>
  <rect class="cls-3" x="379.88" y="95.46" width="28.35" height="28.35"/>
  <rect class="cls-2" x="379.88" y="95.46" width="28.35" height="28.35"/>
  <circle cx="379.88" cy="123.81" r="2.27" transform="translate(-18.46 154.8) rotate(-22.5)"/>
  <path class="cls-3" d="M379.88,95.46c-13.23-9.45-13.23-18.9,0-28.35"/>
  <path class="cls-2" d="M379.88,95.46c-13.23-9.45-13.23-18.9,0-28.35"/>
  <rect class="cls-4" x="379.88" y="67.11" width="28.35" height="28.35"/>
  <rect class="cls-2" x="379.88" y="67.11" width="28.35" height="28.35"/>
  <circle cx="379.88" cy="95.46" r="2.27" transform="translate(-7.61 152.64) rotate(-22.5)"/>
  <rect class="cls-3" x="379.88" y="38.77" width="28.35" height="28.35"/>
  <rect class="cls-2" x="379.88" y="38.77" width="28.35" height="28.35"/>
  <circle cx="379.88" cy="67.11" r="2.27" transform="translate(3.23 150.48) rotate(-22.5)"/>
  <path class="cls-3" d="M379.88,38.77c-13.23-9.45-13.23-18.9,0-28.35"/>
  <path class="cls-2" d="M379.88,38.77c-13.23-9.45-13.23-18.9,0-28.35"/>
  <rect class="cls-4" x="379.88" y="10.42" width="28.35" height="28.35"/>
  <rect class="cls-2" x="379.88" y="10.42" width="28.35" height="28.35"/>
  <circle cx="379.88" cy="38.77" r="2.27" transform="translate(14.08 148.32) rotate(-22.5)"/>
  <circle cx="379.88" cy="10.42" r="2.27" transform="translate(24.93 146.17) rotate(-22.5)"/>
  <rect class="cls-4" x="408.22" y="152.15" width="28.35" height="28.35"/>
  <rect class="cls-2" x="408.22" y="152.15" width="28.35" height="28.35"/>
  <circle cx="408.22" cy="180.5" r="2.27" transform="translate(-38.1 184.82) rotate(-24.41)"/>
  <rect class="cls-3" x="408.22" y="123.81" width="28.35" height="28.35"/>
  <rect class="cls-2" x="408.22" y="123.81" width="28.35" height="28.35"/>
  <circle cx="408.22" cy="152.15" r="2.27" transform="translate(-22.59 216.97) rotate(-29)"/>
  <rect class="cls-4" x="408.22" y="95.46" width="28.35" height="28.35"/>
  <rect class="cls-2" x="408.22" y="95.46" width="28.35" height="28.35"/>
  <circle cx="408.22" cy="123.81" r="2.27" transform="translate(-16.3 165.64) rotate(-22.5)"/>
  <rect class="cls-3" x="408.22" y="67.11" width="28.35" height="28.35"/>
  <rect class="cls-2" x="408.22" y="67.11" width="28.35" height="28.35"/>
  <circle cx="408.22" cy="95.46" r="2.27" transform="translate(-5.46 163.49) rotate(-22.5)"/>
  <rect class="cls-4" x="408.22" y="38.77" width="28.35" height="28.35"/>
  <rect class="cls-2" x="408.22" y="38.77" width="28.35" height="28.35"/>
  <circle cx="408.22" cy="67.11" r="2.27" transform="translate(5.39 161.33) rotate(-22.5)"/>
  <path class="cls-4" d="M408.22,10.42c9.45-13.23,18.9-13.23,28.35,0"/>
  <path class="cls-2" d="M408.22,10.42c9.45-13.23,18.9-13.23,28.35,0"/>
  <rect class="cls-3" x="408.22" y="10.42" width="28.35" height="28.35"/>
  <rect class="cls-2" x="408.22" y="10.42" width="28.35" height="28.35"/>
  <circle cx="408.22" cy="38.77" r="2.27" transform="translate(16.24 159.17) rotate(-22.5)"/>
  <circle cx="408.22" cy="10.42" r="2.27" transform="translate(27.09 157.01) rotate(-22.5)"/>
  <path class="cls-4" d="M436.57,180.5c9.45,13.23,18.9,13.23,28.35,0"/>
  <path class="cls-2" d="M436.57,180.5c9.45,13.23,18.9,13.23,28.35,0"/>
  <rect class="cls-3" x="436.57" y="152.15" width="28.35" height="28.35"/>
  <rect class="cls-2" x="436.57" y="152.15" width="28.35" height="28.35"/>
  <circle cx="436.57" cy="180.5" r="2.27" transform="translate(-35.57 196.53) rotate(-24.41)"/>
  <rect class="cls-4" x="436.57" y="123.81" width="28.35" height="28.35"/>
  <rect class="cls-2" x="436.57" y="123.81" width="28.35" height="28.35"/>
  <circle cx="436.57" cy="152.15" r="2.27" transform="translate(-19.03 230.71) rotate(-29)"/>
  <rect class="cls-3" x="436.57" y="95.46" width="28.35" height="28.35"/>
  <rect class="cls-2" x="436.57" y="95.46" width="28.35" height="28.35"/>
  <circle cx="436.57" cy="123.81" r="2.27" transform="translate(-14.15 176.49) rotate(-22.5)"/>
  <rect class="cls-4" x="436.57" y="67.11" width="28.35" height="28.35"/>
  <rect class="cls-2" x="436.57" y="67.11" width="28.35" height="28.35"/>
  <circle cx="436.57" cy="95.46" r="2.27" transform="translate(-3.3 174.33) rotate(-22.5)"/>
  <rect class="cls-3" x="436.57" y="38.77" width="28.35" height="28.35"/>
  <rect class="cls-2" x="436.57" y="38.77" width="28.35" height="28.35"/>
  <circle cx="436.57" cy="67.11" r="2.27" transform="translate(7.55 172.18) rotate(-22.5)"/>
  <rect class="cls-4" x="436.57" y="10.42" width="28.35" height="28.35"/>
  <rect class="cls-2" x="436.57" y="10.42" width="28.35" height="28.35"/>
  <circle cx="436.57" cy="38.77" r="2.27" transform="translate(18.4 170.02) rotate(-22.5)"/>
  <circle cx="436.57" cy="10.42" r="2.27" transform="translate(29.24 167.86) rotate(-22.5)"/>
  <rect class="cls-4" x="464.92" y="152.15" width="28.35" height="28.35"/>
  <rect class="cls-2" x="464.92" y="152.15" width="28.35" height="28.35"/>
  <circle cx="464.92" cy="180.5" r="2.27" transform="translate(-33.04 208.24) rotate(-24.41)"/>
  <rect class="cls-3" x="464.92" y="123.81" width="28.35" height="28.35"/>
  <rect class="cls-2" x="464.92" y="123.81" width="28.35" height="28.35"/>
  <circle cx="464.92" cy="152.15" r="2.27" transform="translate(-15.48 244.45) rotate(-29)"/>
  <rect class="cls-4" x="464.92" y="95.46" width="28.35" height="28.35"/>
  <rect class="cls-2" x="464.92" y="95.46" width="28.35" height="28.35"/>
  <circle cx="464.92" cy="123.81" r="2.27" transform="translate(-11.99 187.34) rotate(-22.5)"/>
  <rect class="cls-3" x="464.92" y="67.11" width="28.35" height="28.35"/>
  <rect class="cls-2" x="464.92" y="67.11" width="28.35" height="28.35"/>
  <circle cx="464.92" cy="95.46" r="2.27" transform="translate(-1.14 185.18) rotate(-22.5)"/>
  <rect class="cls-4" x="464.92" y="38.77" width="28.35" height="28.35"/>
  <rect class="cls-2" x="464.92" y="38.77" width="28.35" height="28.35"/>
  <circle cx="464.92" cy="67.11" r="2.27" transform="translate(9.71 183.02) rotate(-22.5)"/>
  <path class="cls-4" d="M464.92,10.42c9.45-13.23,18.9-13.23,28.35,0"/>
  <path class="cls-2" d="M464.92,10.42c9.45-13.23,18.9-13.23,28.35,0"/>
  <rect class="cls-3" x="464.92" y="10.42" width="28.35" height="28.35"/>
  <rect class="cls-2" x="464.92" y="10.42" width="28.35" height="28.35"/>
  <circle cx="464.92" cy="38.77" r="2.27" transform="translate(20.55 180.87) rotate(-22.5)"/>
  <circle cx="464.92" cy="10.42" r="2.27" transform="translate(31.4 178.71) rotate(-22.5)"/>
  <path class="cls-4" d="M493.26,180.5c9.45,13.23,18.9,13.23,28.35,0"/>
  <path class="cls-2" d="M493.26,180.5c9.45,13.23,18.9,13.23,28.35,0"/>
  <rect class="cls-3" x="493.26" y="152.15" width="28.35" height="28.35"/>
  <rect class="cls-2" x="493.26" y="152.15" width="28.35" height="28.35"/>
  <circle cx="493.26" cy="180.5" r="2.27" transform="translate(-30.5 219.96) rotate(-24.41)"/>
  <rect class="cls-4" x="493.26" y="123.81" width="28.35" height="28.35"/>
  <rect class="cls-2" x="493.26" y="123.81" width="28.35" height="28.35"/>
  <circle cx="493.26" cy="152.15" r="2.27" transform="translate(-11.93 258.19) rotate(-29)"/>
  <rect class="cls-3" x="493.26" y="95.46" width="28.35" height="28.35"/>
  <rect class="cls-2" x="493.26" y="95.46" width="28.35" height="28.35"/>
  <circle cx="493.26" cy="123.81" r="2.27" transform="translate(-9.83 198.19) rotate(-22.5)"/>
  <rect class="cls-4" x="493.26" y="67.11" width="28.35" height="28.35"/>
  <rect class="cls-2" x="493.26" y="67.11" width="28.35" height="28.35"/>
  <circle cx="493.26" cy="95.46" r="2.27" transform="translate(1.02 196.03) rotate(-22.5)"/>
  <rect class="cls-3" x="493.26" y="38.77" width="28.35" height="28.35"/>
  <rect class="cls-2" x="493.26" y="38.77" width="28.35" height="28.35"/>
  <circle cx="493.26" cy="67.11" r="2.27" transform="translate(11.86 193.87) rotate(-22.5)"/>
  <rect class="cls-4" x="493.26" y="10.42" width="28.35" height="28.35"/>
  <rect class="cls-2" x="493.26" y="10.42" width="28.35" height="28.35"/>
  <circle cx="493.26" cy="38.77" r="2.27" transform="translate(22.71 191.71) rotate(-22.5)"/>
  <circle cx="493.26" cy="10.42" r="2.27" transform="translate(33.56 189.56) rotate(-22.5)"/>
  <path class="cls-3" d="M549.95,180.5c13.23-9.45,13.23-18.9,0-28.35"/>
  <path class="cls-2" d="M549.95,180.5c13.23-9.45,13.23-18.9,0-28.35"/>
  <rect class="cls-4" x="521.61" y="152.15" width="28.35" height="28.35"/>
  <rect class="cls-2" x="521.61" y="152.15" width="28.35" height="28.35"/>
  <path d="M521.61,178.23c-1.25,0-2.27,1.02-2.27,2.27s1.02,2.27,2.27,2.27,2.27-1.02,2.27-2.27-1.02-2.27-2.27-2.27Z"/>
  <rect class="cls-3" x="521.61" y="123.81" width="28.35" height="28.35"/>
  <rect class="cls-2" x="521.61" y="123.81" width="28.35" height="28.35"/>
  <path d="M521.61,149.89c-1.25,0-2.27,1.02-2.27,2.27s1.02,2.27,2.27,2.27,2.27-1.02,2.27-2.27-1.02-2.27-2.27-2.27Z"/>
  <path class="cls-3" d="M549.95,123.81c13.23-9.45,13.23-18.9,0-28.35"/>
  <path class="cls-2" d="M549.95,123.81c13.23-9.45,13.23-18.9,0-28.35"/>
  <rect class="cls-4" x="521.61" y="95.46" width="28.35" height="28.35"/>
  <rect class="cls-2" x="521.61" y="95.46" width="28.35" height="28.35"/>
  <path d="M521.61,121.54c-1.25,0-2.27,1.02-2.27,2.27s1.02,2.27,2.27,2.27,2.27-1.02,2.27-2.27-1.02-2.27-2.27-2.27Z"/>
  <rect class="cls-3" x="521.61" y="67.11" width="28.35" height="28.35"/>
  <rect class="cls-2" x="521.61" y="67.11" width="28.35" height="28.35"/>
  <path d="M521.61,93.19c-1.25,0-2.27,1.02-2.27,2.27s1.02,2.27,2.27,2.27,2.27-1.02,2.27-2.27-1.02-2.27-2.27-2.27Z"/>
  <path class="cls-3" d="M549.95,67.11c13.23-9.45,13.23-18.9,0-28.35"/>
  <path class="cls-2" d="M549.95,67.11c13.23-9.45,13.23-18.9,0-28.35"/>
  <rect class="cls-4" x="521.61" y="38.77" width="28.35" height="28.35"/>
  <rect class="cls-2" x="521.61" y="38.77" width="28.35" height="28.35"/>
  <path d="M521.61,64.85c-1.25,0-2.27,1.02-2.27,2.27s1.02,2.27,2.27,2.27,2.27-1.02,2.27-2.27-1.02-2.27-2.27-2.27Z"/>
  <path class="cls-4" d="M521.61,10.42c9.45-13.23,18.9-13.23,28.35,0"/>
  <path class="cls-2" d="M521.61,10.42c9.45-13.23,18.9-13.23,28.35,0"/>
  <rect class="cls-3" x="521.61" y="10.42" width="28.35" height="28.35"/>
  <rect class="cls-2" x="521.61" y="10.42" width="28.35" height="28.35"/>
  <path d="M521.61,36.5c-1.25,0-2.27,1.02-2.27,2.27s1.02,2.27,2.27,2.27,2.27-1.02,2.27-2.27-1.02-2.27-2.27-2.27Z"/>
  <path d="M521.61,8.15c-1.25,0-2.27,1.02-2.27,2.27s1.02,2.27,2.27,2.27,2.27-1.02,2.27-2.27-1.02-2.27-2.27-2.27Z"/>
  <path d="M549.95,178.23c-1.25,0-2.27,1.02-2.27,2.27s1.02,2.27,2.27,2.27,2.27-1.02,2.27-2.27-1.02-2.27-2.27-2.27Z"/>
  <path d="M549.95,149.89c-1.25,0-2.27,1.02-2.27,2.27s1.02,2.27,2.27,2.27,2.27-1.02,2.27-2.27-1.02-2.27-2.27-2.27Z"/>
  <path d="M549.95,121.54c-1.25,0-2.27,1.02-2.27,2.27s1.02,2.27,2.27,2.27,2.27-1.02,2.27-2.27-1.02-2.27-2.27-2.27Z"/>
  <path d="M549.95,93.19c-1.25,0-2.27,1.02-2.27,2.27s1.02,2.27,2.27,2.27,2.27-1.02,2.27-2.27-1.02-2.27-2.27-2.27Z"/>
  <path d="M549.95,64.85c-1.25,0-2.27,1.02-2.27,2.27s1.02,2.27,2.27,2.27,2.27-1.02,2.27-2.27-1.02-2.27-2.27-2.27Z"/>
  <path d="M549.95,36.5c-1.25,0-2.27,1.02-2.27,2.27s1.02,2.27,2.27,2.27,2.27-1.02,2.27-2.27-1.02-2.27-2.27-2.27Z"/>
  <path d="M549.95,8.15c-1.25,0-2.27,1.02-2.27,2.27s1.02,2.27,2.27,2.27,2.27-1.02,2.27-2.27-1.02-2.27-2.27-2.27Z"/>
</svg>